<mxfile host="65bd71144e">
    <diagram id="zJP9Rn_apFHwhB3t_4ZS" name="Page-1">
        <mxGraphModel dx="2686" dy="607" grid="0" gridSize="10" guides="1" tooltips="1" connect="1" arrows="1" fold="1" page="0" pageScale="1" pageWidth="827" pageHeight="1169" math="0" shadow="0">
            <root>
                <mxCell id="0"/>
                <mxCell id="1" parent="0"/>
                <mxCell id="36" style="edgeStyle=none;html=1;exitX=1;exitY=0.5;exitDx=0;exitDy=0;entryX=0;entryY=0.5;entryDx=0;entryDy=0;fontColor=#FFFFFF;startArrow=none;" parent="1" source="42" target="34" edge="1">
                    <mxGeometry relative="1" as="geometry"/>
                </mxCell>
                <mxCell id="51" style="edgeStyle=none;html=1;entryX=0;entryY=0.5;entryDx=0;entryDy=0;fontColor=#00FF00;startArrow=none;exitX=1;exitY=0.75;exitDx=0;exitDy=0;" parent="1" source="52" target="50" edge="1">
                    <mxGeometry relative="1" as="geometry">
                        <mxPoint x="-973" y="627" as="sourcePoint"/>
                    </mxGeometry>
                </mxCell>
                <mxCell id="59" style="edgeStyle=none;html=1;exitX=1;exitY=0.5;exitDx=0;exitDy=0;entryX=0;entryY=0.5;entryDx=0;entryDy=0;fontColor=#00FF00;startArrow=none;" parent="1" source="63" target="58" edge="1">
                    <mxGeometry relative="1" as="geometry">
                        <Array as="points"/>
                    </mxGeometry>
                </mxCell>
                <mxCell id="109" style="edgeStyle=none;html=1;exitX=1;exitY=0;exitDx=0;exitDy=0;entryX=0.077;entryY=0.302;entryDx=0;entryDy=0;entryPerimeter=0;" parent="1" source="2" target="24" edge="1">
                    <mxGeometry relative="1" as="geometry"/>
                </mxCell>
                <mxCell id="2" value="0" style="ellipse;whiteSpace=wrap;html=1;aspect=fixed;" parent="1" vertex="1">
                    <mxGeometry x="-1203" y="417" width="80" height="80" as="geometry"/>
                </mxCell>
                <mxCell id="3" value="" style="endArrow=classic;html=1;exitX=0;exitY=0;exitDx=0;exitDy=0;entryX=1;entryY=0;entryDx=0;entryDy=0;" parent="1" source="2" target="2" edge="1">
                    <mxGeometry width="50" height="50" relative="1" as="geometry">
                        <mxPoint x="-1183" y="487" as="sourcePoint"/>
                        <mxPoint x="-1133" y="437" as="targetPoint"/>
                        <Array as="points">
                            <mxPoint x="-1191" y="397"/>
                            <mxPoint x="-1163" y="387"/>
                            <mxPoint x="-1135" y="397"/>
                        </Array>
                    </mxGeometry>
                </mxCell>
                <mxCell id="4" value="&lt;font color=&quot;#00ff00&quot;&gt;bl,tab,nl&lt;/font&gt;" style="text;html=1;strokeColor=none;fillColor=none;align=center;verticalAlign=middle;whiteSpace=wrap;rounded=0;" parent="1" vertex="1">
                    <mxGeometry x="-1193" y="357" width="60" height="30" as="geometry"/>
                </mxCell>
                <mxCell id="5" value="" style="endArrow=classic;html=1;entryX=0;entryY=0.5;entryDx=0;entryDy=0;startArrow=none;exitX=1;exitY=0.5;exitDx=0;exitDy=0;" parent="1" source="15" target="6" edge="1">
                    <mxGeometry width="50" height="50" relative="1" as="geometry">
                        <mxPoint x="-1023" y="267" as="sourcePoint"/>
                        <mxPoint x="-773" y="187" as="targetPoint"/>
                    </mxGeometry>
                </mxCell>
                <mxCell id="28" style="edgeStyle=none;html=1;entryX=0.329;entryY=0.054;entryDx=0;entryDy=0;fontColor=#00FF00;startArrow=none;exitX=1;exitY=0.5;exitDx=0;exitDy=0;entryPerimeter=0;" parent="1" source="29" target="24" edge="1">
                    <mxGeometry relative="1" as="geometry">
                        <mxPoint x="-213" y="177" as="sourcePoint"/>
                        <Array as="points"/>
                    </mxGeometry>
                </mxCell>
                <mxCell id="6" value="1" style="ellipse;whiteSpace=wrap;html=1;aspect=fixed;" parent="1" vertex="1">
                    <mxGeometry x="-816" y="147" width="80" height="80" as="geometry"/>
                </mxCell>
                <mxCell id="7" value="" style="endArrow=classic;html=1;exitX=0;exitY=0;exitDx=0;exitDy=0;entryX=1;entryY=0;entryDx=0;entryDy=0;" parent="1" edge="1">
                    <mxGeometry width="50" height="50" relative="1" as="geometry">
                        <mxPoint x="-804.2842712474621" y="158.71572875253787" as="sourcePoint"/>
                        <mxPoint x="-747.7157287525381" y="158.71572875253787" as="targetPoint"/>
                        <Array as="points">
                            <mxPoint x="-804" y="127"/>
                            <mxPoint x="-776" y="117"/>
                            <mxPoint x="-748" y="127"/>
                        </Array>
                    </mxGeometry>
                </mxCell>
                <mxCell id="31" style="edgeStyle=none;html=1;entryX=0;entryY=0;entryDx=0;entryDy=0;fontColor=#00FF00;startArrow=none;exitX=1;exitY=0.5;exitDx=0;exitDy=0;" parent="1" source="32" target="24" edge="1">
                    <mxGeometry relative="1" as="geometry">
                        <mxPoint x="-293" y="327" as="sourcePoint"/>
                        <Array as="points">
                            <mxPoint x="-323" y="367"/>
                        </Array>
                    </mxGeometry>
                </mxCell>
                <mxCell id="11" value="2" style="ellipse;whiteSpace=wrap;html=1;aspect=fixed;" parent="1" vertex="1">
                    <mxGeometry x="-816" y="297" width="80" height="80" as="geometry"/>
                </mxCell>
                <mxCell id="12" value="" style="endArrow=classic;html=1;exitX=0;exitY=0;exitDx=0;exitDy=0;entryX=1;entryY=0;entryDx=0;entryDy=0;" parent="1" edge="1">
                    <mxGeometry width="50" height="50" relative="1" as="geometry">
                        <mxPoint x="-804.2842712474621" y="308.71572875253787" as="sourcePoint"/>
                        <mxPoint x="-747.7157287525379" y="308.71572875253787" as="targetPoint"/>
                        <Array as="points">
                            <mxPoint x="-804" y="277"/>
                            <mxPoint x="-776" y="267"/>
                            <mxPoint x="-748" y="277"/>
                        </Array>
                    </mxGeometry>
                </mxCell>
                <mxCell id="13" value="&lt;font color=&quot;#00ff00&quot;&gt;d&lt;br&gt;&lt;/font&gt;&lt;span style=&quot;color: rgb(204, 0, 0);&quot;&gt;A.S. 3&lt;/span&gt;&lt;font color=&quot;#00ff00&quot;&gt;&lt;br&gt;&lt;/font&gt;" style="text;html=1;strokeColor=none;fillColor=none;align=center;verticalAlign=middle;whiteSpace=wrap;rounded=0;" parent="1" vertex="1">
                    <mxGeometry x="-806" y="240" width="60" height="20" as="geometry"/>
                </mxCell>
                <mxCell id="17" value="" style="endArrow=none;html=1;exitX=1;exitY=0;exitDx=0;exitDy=0;entryX=0;entryY=0.5;entryDx=0;entryDy=0;" parent="1" source="2" target="15" edge="1">
                    <mxGeometry width="50" height="50" relative="1" as="geometry">
                        <mxPoint x="-1123" y="457" as="sourcePoint"/>
                        <mxPoint x="-816.0000000000005" y="177" as="targetPoint"/>
                    </mxGeometry>
                </mxCell>
                <mxCell id="15" value="&lt;font color=&quot;#00ff00&quot;&gt;l @&lt;/font&gt;&lt;br&gt;A.S. 3" style="text;html=1;strokeColor=none;fillColor=none;align=center;verticalAlign=middle;whiteSpace=wrap;rounded=0;fontColor=#CC0000;rotation=-40;" parent="1" vertex="1">
                    <mxGeometry x="-1023" y="247" width="40" height="20" as="geometry"/>
                </mxCell>
                <mxCell id="18" value="" style="endArrow=classic;html=1;entryX=0;entryY=0.5;entryDx=0;entryDy=0;startArrow=none;exitX=1;exitY=0.5;exitDx=0;exitDy=0;" parent="1" source="20" target="11" edge="1">
                    <mxGeometry width="50" height="50" relative="1" as="geometry">
                        <mxPoint x="-973" y="390.7" as="sourcePoint"/>
                        <mxPoint x="-766.0000000000005" y="187.13" as="targetPoint"/>
                    </mxGeometry>
                </mxCell>
                <mxCell id="19" value="" style="endArrow=none;html=1;exitX=1;exitY=0;exitDx=0;exitDy=0;entryX=0;entryY=0.5;entryDx=0;entryDy=0;" parent="1" source="2" target="20" edge="1">
                    <mxGeometry width="50" height="50" relative="1" as="geometry">
                        <mxPoint x="-1073" y="297.13" as="sourcePoint"/>
                        <mxPoint x="-766.0000000000005" y="300.7" as="targetPoint"/>
                    </mxGeometry>
                </mxCell>
                <mxCell id="20" value="&lt;font color=&quot;#00ff00&quot;&gt;d&lt;/font&gt;&lt;br&gt;A.S. 3" style="text;html=1;strokeColor=none;fillColor=none;align=center;verticalAlign=middle;whiteSpace=wrap;rounded=0;fontColor=#CC0000;rotation=0;" parent="1" vertex="1">
                    <mxGeometry x="-993" y="333.43" width="40" height="23.57" as="geometry"/>
                </mxCell>
                <mxCell id="22" value="&lt;font color=&quot;#00ff00&quot;&gt;l d @ _&lt;br&gt;&lt;/font&gt;&lt;span style=&quot;color: rgb(204, 0, 0);&quot;&gt;A.S. 2&lt;/span&gt;&lt;font color=&quot;#00ff00&quot;&gt;&lt;br&gt;&lt;/font&gt;" style="text;html=1;strokeColor=none;fillColor=none;align=center;verticalAlign=middle;whiteSpace=wrap;rounded=0;" parent="1" vertex="1">
                    <mxGeometry x="-806" y="90" width="60" height="20" as="geometry"/>
                </mxCell>
                <mxCell id="24" value="F" style="ellipse;whiteSpace=wrap;html=1;aspect=fixed;fontColor=#FFFFFF;" parent="1" vertex="1">
                    <mxGeometry x="-103" y="417" width="80" height="80" as="geometry"/>
                </mxCell>
                <mxCell id="25" value="" style="endArrow=classic;html=1;fontColor=#FFFFFF;exitX=1;exitY=0.5;exitDx=0;exitDy=0;entryX=0;entryY=0.5;entryDx=0;entryDy=0;startArrow=none;" parent="1" source="26" target="24" edge="1">
                    <mxGeometry width="50" height="50" relative="1" as="geometry">
                        <mxPoint x="-673" y="467" as="sourcePoint"/>
                        <mxPoint x="-623" y="417" as="targetPoint"/>
                    </mxGeometry>
                </mxCell>
                <mxCell id="27" value="" style="endArrow=none;html=1;fontColor=#FFFFFF;exitX=1;exitY=0.5;exitDx=0;exitDy=0;entryX=0;entryY=0.5;entryDx=0;entryDy=0;" parent="1" source="2" target="26" edge="1">
                    <mxGeometry width="50" height="50" relative="1" as="geometry">
                        <mxPoint x="-1123" y="457" as="sourcePoint"/>
                        <mxPoint x="-103" y="457" as="targetPoint"/>
                    </mxGeometry>
                </mxCell>
                <mxCell id="26" value="&lt;font color=&quot;#00ff00&quot;&gt;+&amp;nbsp;&lt;/font&gt;&amp;nbsp;&lt;font color=&quot;#00ff00&quot;&gt;-&amp;nbsp;&lt;/font&gt;&amp;nbsp;&lt;font color=&quot;#00ff00&quot;&gt;/&amp;nbsp;&lt;/font&gt;&amp;nbsp;&lt;font color=&quot;#00ff00&quot;&gt;*&lt;/font&gt;&lt;font color=&quot;#00ff00&quot;&gt;&amp;nbsp;( ) , ; =&lt;br&gt;&lt;/font&gt;&lt;span style=&quot;color: rgb(204, 0, 0);&quot;&gt;A.S. 5&lt;/span&gt;&lt;font color=&quot;#00ff00&quot;&gt;&lt;br&gt;&lt;/font&gt;" style="text;html=1;strokeColor=none;fillColor=none;align=center;verticalAlign=middle;whiteSpace=wrap;rounded=0;fontColor=#FFFFFF;" parent="1" vertex="1">
                    <mxGeometry x="-673" y="447" width="100" height="25" as="geometry"/>
                </mxCell>
                <mxCell id="30" value="" style="edgeStyle=none;html=1;exitX=1;exitY=0.5;exitDx=0;exitDy=0;entryX=0;entryY=0.5;entryDx=0;entryDy=0;fontColor=#00FF00;endArrow=none;" parent="1" source="6" target="29" edge="1">
                    <mxGeometry relative="1" as="geometry">
                        <mxPoint x="-736.0000000000005" y="177" as="sourcePoint"/>
                        <mxPoint x="-91.28427124746122" y="428.71572875253855" as="targetPoint"/>
                        <Array as="points"/>
                    </mxGeometry>
                </mxCell>
                <mxCell id="29" value="&lt;font color=&quot;#00ff00&quot;&gt;C - (l + d + @+_)&lt;/font&gt;&lt;br&gt;A.S. 1" style="text;html=1;strokeColor=none;fillColor=none;align=center;verticalAlign=middle;whiteSpace=wrap;rounded=0;fontColor=#CC0000;rotation=20;" parent="1" vertex="1">
                    <mxGeometry x="-422.00000000000006" y="240" width="80" height="20" as="geometry"/>
                </mxCell>
                <mxCell id="33" value="" style="edgeStyle=none;html=1;exitX=1;exitY=0.5;exitDx=0;exitDy=0;entryX=0;entryY=0.5;entryDx=0;entryDy=0;fontColor=#00FF00;endArrow=none;" parent="1" source="11" target="32" edge="1">
                    <mxGeometry relative="1" as="geometry">
                        <mxPoint x="-736.0000000000005" y="337" as="sourcePoint"/>
                        <mxPoint x="-91.28427124746122" y="428.71572875253855" as="targetPoint"/>
                        <Array as="points"/>
                    </mxGeometry>
                </mxCell>
                <mxCell id="32" value="&lt;font color=&quot;#00ff00&quot;&gt;C - d&lt;/font&gt;&lt;br&gt;A.S. 4" style="text;html=1;strokeColor=none;fillColor=none;align=center;verticalAlign=middle;whiteSpace=wrap;rounded=0;fontColor=#CC0000;rotation=5;" parent="1" vertex="1">
                    <mxGeometry x="-452.94" y="333.91" width="50" height="20.09" as="geometry"/>
                </mxCell>
                <mxCell id="37" style="edgeStyle=none;html=1;exitX=1;exitY=0.5;exitDx=0;exitDy=0;entryX=0;entryY=0.5;entryDx=0;entryDy=0;fontColor=#FFFFFF;startArrow=none;" parent="1" source="44" target="35" edge="1">
                    <mxGeometry relative="1" as="geometry"/>
                </mxCell>
                <mxCell id="34" value="&lt;font color=&quot;#ffffff&quot;&gt;3&lt;/font&gt;" style="ellipse;whiteSpace=wrap;html=1;aspect=fixed;fontColor=#00FF00;" parent="1" vertex="1">
                    <mxGeometry x="-816" y="537" width="80" height="80" as="geometry"/>
                </mxCell>
                <mxCell id="38" style="edgeStyle=none;html=1;fontColor=#FFFFFF;startArrow=none;" parent="1" target="24" edge="1">
                    <mxGeometry relative="1" as="geometry">
                        <Array as="points"/>
                        <mxPoint x="-445" y="515" as="sourcePoint"/>
                    </mxGeometry>
                </mxCell>
                <mxCell id="35" value="&lt;font color=&quot;#ffffff&quot;&gt;4&lt;/font&gt;" style="ellipse;whiteSpace=wrap;html=1;aspect=fixed;fontColor=#00FF00;" parent="1" vertex="1">
                    <mxGeometry x="-583" y="537" width="80" height="80" as="geometry"/>
                </mxCell>
                <mxCell id="41" value="" style="edgeStyle=none;html=1;exitX=0.5;exitY=0;exitDx=0;exitDy=0;fontColor=#FFFFFF;endArrow=none;entryX=1;entryY=0.5;entryDx=0;entryDy=0;" parent="1" source="35" target="39" edge="1">
                    <mxGeometry relative="1" as="geometry">
                        <mxPoint x="-502.99999999998727" y="577" as="sourcePoint"/>
                        <mxPoint x="-593" y="527" as="targetPoint"/>
                        <Array as="points">
                            <mxPoint x="-543" y="510"/>
                        </Array>
                    </mxGeometry>
                </mxCell>
                <mxCell id="39" value="&lt;font color=&quot;#00ff00&quot;&gt;nl&lt;/font&gt;" style="text;html=1;strokeColor=none;fillColor=none;align=center;verticalAlign=middle;whiteSpace=wrap;rounded=0;fontColor=#FFFFFF;" parent="1" vertex="1">
                    <mxGeometry x="-477" y="498" width="30" height="31.5" as="geometry"/>
                </mxCell>
                <mxCell id="43" value="" style="edgeStyle=none;html=1;entryX=0;entryY=0.5;entryDx=0;entryDy=0;fontColor=#FFFFFF;endArrow=none;exitX=0.961;exitY=0.76;exitDx=0;exitDy=0;exitPerimeter=0;" parent="1" source="2" target="42" edge="1">
                    <mxGeometry relative="1" as="geometry">
                        <mxPoint x="-1135" y="485" as="sourcePoint"/>
                        <mxPoint x="-783.0000000000127" y="577" as="targetPoint"/>
                    </mxGeometry>
                </mxCell>
                <mxCell id="42" value="&lt;font color=&quot;#00ff00&quot;&gt;#&lt;/font&gt;" style="text;html=1;strokeColor=none;fillColor=none;align=center;verticalAlign=middle;whiteSpace=wrap;rounded=0;fontColor=#FFFFFF;rotation=15;" parent="1" vertex="1">
                    <mxGeometry x="-972.49" y="518.12" width="20" height="35" as="geometry"/>
                </mxCell>
                <mxCell id="45" value="" style="edgeStyle=none;html=1;exitX=1;exitY=0.5;exitDx=0;exitDy=0;entryX=0;entryY=0.5;entryDx=0;entryDy=0;fontColor=#FFFFFF;endArrow=none;" parent="1" source="34" target="44" edge="1">
                    <mxGeometry relative="1" as="geometry">
                        <mxPoint x="-702.9999999999868" y="577" as="sourcePoint"/>
                        <mxPoint x="-583.0000000000127" y="577" as="targetPoint"/>
                    </mxGeometry>
                </mxCell>
                <mxCell id="44" value="&lt;font color=&quot;#00ff00&quot;&gt;#&lt;/font&gt;" style="text;html=1;strokeColor=none;fillColor=none;align=center;verticalAlign=middle;whiteSpace=wrap;rounded=0;fontColor=#FFFFFF;rotation=0;" parent="1" vertex="1">
                    <mxGeometry x="-653" y="559.5" width="20" height="35" as="geometry"/>
                </mxCell>
                <mxCell id="48" style="edgeStyle=none;html=1;exitX=1;exitY=0;exitDx=0;exitDy=0;entryX=1;entryY=1;entryDx=0;entryDy=0;fontColor=#FFFFFF;" parent="1" source="35" target="35" edge="1">
                    <mxGeometry relative="1" as="geometry">
                        <Array as="points">
                            <mxPoint x="-483" y="557"/>
                            <mxPoint x="-473" y="577"/>
                            <mxPoint x="-483" y="597"/>
                        </Array>
                    </mxGeometry>
                </mxCell>
                <mxCell id="54" style="edgeStyle=none;html=1;entryX=-0.036;entryY=0.666;entryDx=0;entryDy=0;fontColor=#00FF00;startArrow=none;exitX=1;exitY=0.5;exitDx=0;exitDy=0;entryPerimeter=0;" parent="1" source="56" target="24" edge="1">
                    <mxGeometry relative="1" as="geometry">
                        <mxPoint x="-363" y="647" as="sourcePoint"/>
                        <Array as="points">
                            <mxPoint x="-373" y="617"/>
                        </Array>
                    </mxGeometry>
                </mxCell>
                <mxCell id="97" style="edgeStyle=none;html=1;exitX=0.75;exitY=0;exitDx=0;exitDy=0;stroke=#FF0000;;strokeColor=#CC0000;startArrow=none;entryX=0;entryY=0.5;entryDx=0;entryDy=0;" parent="1" source="99" target="24" edge="1">
                    <mxGeometry relative="1" as="geometry">
                        <mxPoint x="-1080" y="510" as="targetPoint"/>
                        <Array as="points">
                            <mxPoint x="-593" y="634"/>
                            <mxPoint x="-373" y="598"/>
                        </Array>
                    </mxGeometry>
                </mxCell>
                <mxCell id="50" value="&lt;span style=&quot;color: rgb(255, 255, 255);&quot;&gt;5&lt;/span&gt;" style="ellipse;whiteSpace=wrap;html=1;aspect=fixed;fontColor=#00FF00;" parent="1" vertex="1">
                    <mxGeometry x="-816" y="647" width="80" height="80" as="geometry"/>
                </mxCell>
                <mxCell id="53" value="" style="edgeStyle=none;html=1;exitX=0.984;exitY=0.737;exitDx=0;exitDy=0;fontColor=#00FF00;endArrow=none;entryX=0;entryY=0.5;entryDx=0;entryDy=0;exitPerimeter=0;" parent="1" source="2" target="52" edge="1">
                    <mxGeometry relative="1" as="geometry">
                        <mxPoint x="-1134.7157287525295" y="485.28427124747077" as="sourcePoint"/>
                        <mxPoint x="-1003" y="607" as="targetPoint"/>
                    </mxGeometry>
                </mxCell>
                <mxCell id="52" value="&lt;font color=&quot;#00ff00&quot;&gt;:&lt;br&gt;&lt;/font&gt;&lt;span style=&quot;color: rgb(204, 0, 0);&quot;&gt;A.S. 3&lt;/span&gt;&lt;font color=&quot;#00ff00&quot;&gt;&lt;br&gt;&lt;/font&gt;" style="text;html=1;strokeColor=none;fillColor=none;align=center;verticalAlign=middle;whiteSpace=wrap;rounded=0;fontColor=#FFFFFF;rotation=15;" parent="1" vertex="1">
                    <mxGeometry x="-1003.39" y="602.48" width="43" height="30" as="geometry"/>
                </mxCell>
                <mxCell id="55" style="edgeStyle=none;html=1;exitX=0.5;exitY=0;exitDx=0;exitDy=0;entryX=0.5;entryY=0;entryDx=0;entryDy=0;fontColor=#00FF00;" parent="1" source="52" target="52" edge="1">
                    <mxGeometry relative="1" as="geometry"/>
                </mxCell>
                <mxCell id="57" value="" style="edgeStyle=none;html=1;exitX=1;exitY=0.5;exitDx=0;exitDy=0;entryX=0;entryY=0.5;entryDx=0;entryDy=0;fontColor=#00FF00;endArrow=none;" parent="1" source="50" target="56" edge="1">
                    <mxGeometry relative="1" as="geometry">
                        <mxPoint x="-736" y="727" as="sourcePoint"/>
                        <mxPoint x="-91.28427124746167" y="485.2842712474619" as="targetPoint"/>
                        <Array as="points"/>
                    </mxGeometry>
                </mxCell>
                <mxCell id="56" value="&lt;font color=&quot;#00ff00&quot;&gt;=&lt;br&gt;&lt;/font&gt;&lt;span style=&quot;color: rgb(204, 0, 0);&quot;&gt;A.S. 14&lt;/span&gt;&lt;font color=&quot;#00ff00&quot;&gt;&lt;br&gt;&lt;/font&gt;" style="text;html=1;strokeColor=none;fillColor=none;align=center;verticalAlign=middle;whiteSpace=wrap;rounded=0;fontColor=#FFFFFF;rotation=-30;" parent="1" vertex="1">
                    <mxGeometry x="-414.54" y="611.25" width="43" height="30" as="geometry"/>
                </mxCell>
                <mxCell id="60" style="edgeStyle=none;html=1;entryX=0;entryY=1;entryDx=0;entryDy=0;fontColor=#00FF00;startArrow=none;exitX=1;exitY=0.5;exitDx=0;exitDy=0;" parent="1" source="61" target="24" edge="1">
                    <mxGeometry relative="1" as="geometry">
                        <mxPoint x="-303" y="637" as="sourcePoint"/>
                        <Array as="points"/>
                    </mxGeometry>
                </mxCell>
                <mxCell id="58" value="&lt;span style=&quot;color: rgb(255, 255, 255);&quot;&gt;6&lt;/span&gt;" style="ellipse;whiteSpace=wrap;html=1;aspect=fixed;fontColor=#00FF00;" parent="1" vertex="1">
                    <mxGeometry x="-816" y="757" width="80" height="80" as="geometry"/>
                </mxCell>
                <mxCell id="62" value="" style="edgeStyle=none;html=1;exitX=1;exitY=0.5;exitDx=0;exitDy=0;entryX=0;entryY=0.5;entryDx=0;entryDy=0;fontColor=#00FF00;endArrow=none;" parent="1" source="58" target="61" edge="1">
                    <mxGeometry relative="1" as="geometry">
                        <mxPoint x="-736" y="797" as="sourcePoint"/>
                        <mxPoint x="-63" y="497" as="targetPoint"/>
                        <Array as="points"/>
                    </mxGeometry>
                </mxCell>
                <mxCell id="61" value="&lt;font color=&quot;#00ff00&quot;&gt;C - =&amp;nbsp;&lt;br&gt;&lt;/font&gt;&lt;span style=&quot;color: rgb(204, 0, 0);&quot;&gt;A.S. 8&lt;/span&gt;&lt;font color=&quot;#00ff00&quot;&gt;&lt;br&gt;&lt;/font&gt;" style="text;html=1;strokeColor=none;fillColor=none;align=center;verticalAlign=middle;whiteSpace=wrap;rounded=0;fontColor=#FFFFFF;rotation=-25;" parent="1" vertex="1">
                    <mxGeometry x="-374.43000000000006" y="650.53" width="50.6" height="30" as="geometry"/>
                </mxCell>
                <mxCell id="64" value="" style="edgeStyle=none;html=1;exitX=1;exitY=1;exitDx=0;exitDy=0;entryX=0;entryY=0.5;entryDx=0;entryDy=0;fontColor=#00FF00;endArrow=none;" parent="1" source="2" target="63" edge="1">
                    <mxGeometry relative="1" as="geometry">
                        <mxPoint x="-1134.7157287525295" y="485.28427124747054" as="sourcePoint"/>
                        <mxPoint x="-816" y="797" as="targetPoint"/>
                        <Array as="points"/>
                    </mxGeometry>
                </mxCell>
                <mxCell id="63" value="&lt;font color=&quot;#00ff00&quot;&gt;&amp;gt;&lt;br&gt;&lt;/font&gt;&lt;span style=&quot;color: rgb(204, 0, 0);&quot;&gt;A.S. 3&lt;/span&gt;&lt;font color=&quot;#00ff00&quot;&gt;&lt;br&gt;&lt;/font&gt;" style="text;html=1;strokeColor=none;fillColor=none;align=center;verticalAlign=middle;whiteSpace=wrap;rounded=0;fontColor=#FFFFFF;rotation=35;" parent="1" vertex="1">
                    <mxGeometry x="-1025" y="656.89" width="43.86" height="23.43" as="geometry"/>
                </mxCell>
                <mxCell id="65" style="edgeStyle=none;html=1;exitX=1;exitY=0.5;exitDx=0;exitDy=0;entryX=0;entryY=0.5;entryDx=0;entryDy=0;fontColor=#00FF00;startArrow=none;" parent="1" source="71" target="67" edge="1">
                    <mxGeometry relative="1" as="geometry">
                        <Array as="points"/>
                    </mxGeometry>
                </mxCell>
                <mxCell id="66" style="edgeStyle=none;html=1;entryX=0.5;entryY=1;entryDx=0;entryDy=0;fontColor=#00FF00;startArrow=none;exitX=1;exitY=0.5;exitDx=0;exitDy=0;" parent="1" source="69" target="24" edge="1">
                    <mxGeometry relative="1" as="geometry">
                        <mxPoint x="-301.28" y="746.22" as="sourcePoint"/>
                        <mxPoint x="-61.27999999999997" y="606.22" as="targetPoint"/>
                        <Array as="points">
                            <mxPoint x="-123" y="627"/>
                        </Array>
                    </mxGeometry>
                </mxCell>
                <mxCell id="80" style="edgeStyle=none;html=1;exitX=1;exitY=0.5;exitDx=0;exitDy=0;entryX=0;entryY=0.5;entryDx=0;entryDy=0;fontColor=#FFFFFF;startArrow=none;" parent="1" source="81" target="78" edge="1">
                    <mxGeometry relative="1" as="geometry">
                        <Array as="points"/>
                    </mxGeometry>
                </mxCell>
                <mxCell id="67" value="&lt;span style=&quot;color: rgb(255, 255, 255);&quot;&gt;7&lt;/span&gt;" style="ellipse;whiteSpace=wrap;html=1;aspect=fixed;fontColor=#00FF00;" parent="1" vertex="1">
                    <mxGeometry x="-814.28" y="866.22" width="80" height="80" as="geometry"/>
                </mxCell>
                <mxCell id="68" value="" style="edgeStyle=none;html=1;exitX=1;exitY=0.5;exitDx=0;exitDy=0;entryX=0;entryY=0.5;entryDx=0;entryDy=0;fontColor=#00FF00;endArrow=none;" parent="1" source="67" target="69" edge="1">
                    <mxGeometry relative="1" as="geometry">
                        <mxPoint x="-734.28" y="906.22" as="sourcePoint"/>
                        <mxPoint x="-61.27999999999997" y="606.22" as="targetPoint"/>
                        <Array as="points"/>
                    </mxGeometry>
                </mxCell>
                <mxCell id="69" value="&lt;font color=&quot;#00ff00&quot;&gt;C - (&amp;gt; + =+ &amp;lt; )&lt;br&gt;&lt;/font&gt;&lt;span style=&quot;color: rgb(204, 0, 0);&quot;&gt;A.S. 9&lt;/span&gt;&lt;font color=&quot;#00ff00&quot;&gt;&lt;br&gt;&lt;/font&gt;" style="text;html=1;strokeColor=none;fillColor=none;align=center;verticalAlign=middle;whiteSpace=wrap;rounded=0;fontColor=#FFFFFF;rotation=-25;" parent="1" vertex="1">
                    <mxGeometry x="-374.0899999999999" y="753.54" width="80" height="30" as="geometry"/>
                </mxCell>
                <mxCell id="70" value="" style="edgeStyle=none;html=1;exitX=0.5;exitY=1;exitDx=0;exitDy=0;entryX=0;entryY=0.5;entryDx=0;entryDy=0;fontColor=#00FF00;endArrow=none;" parent="1" source="2" target="71" edge="1">
                    <mxGeometry relative="1" as="geometry">
                        <mxPoint x="-1132.9957287525294" y="594.5042712474706" as="sourcePoint"/>
                        <mxPoint x="-814.28" y="906.22" as="targetPoint"/>
                        <Array as="points"/>
                    </mxGeometry>
                </mxCell>
                <mxCell id="71" value="&lt;font color=&quot;#00ff00&quot;&gt;&amp;lt;&lt;br&gt;&lt;/font&gt;&lt;span style=&quot;color: rgb(204, 0, 0);&quot;&gt;A.S. 3&lt;/span&gt;&lt;font color=&quot;#00ff00&quot;&gt;&lt;br&gt;&lt;/font&gt;" style="text;html=1;strokeColor=none;fillColor=none;align=center;verticalAlign=middle;whiteSpace=wrap;rounded=0;fontColor=#FFFFFF;rotation=35;" parent="1" vertex="1">
                    <mxGeometry x="-1024.11" y="765.19" width="51.28" height="30" as="geometry"/>
                </mxCell>
                <mxCell id="72" style="edgeStyle=none;html=1;entryX=0;entryY=1;entryDx=0;entryDy=0;fontColor=#00FF00;startArrow=none;exitX=1;exitY=0.5;exitDx=0;exitDy=0;" parent="1" source="74" target="24" edge="1">
                    <mxGeometry relative="1" as="geometry">
                        <mxPoint x="-281.28" y="667.86" as="sourcePoint"/>
                        <mxPoint x="-41.27999999999997" y="527.86" as="targetPoint"/>
                        <Array as="points"/>
                    </mxGeometry>
                </mxCell>
                <mxCell id="73" value="" style="edgeStyle=none;html=1;exitX=1;exitY=0.5;exitDx=0;exitDy=0;entryX=0;entryY=0.5;entryDx=0;entryDy=0;fontColor=#00FF00;endArrow=none;" parent="1" source="58" target="74" edge="1">
                    <mxGeometry relative="1" as="geometry">
                        <mxPoint x="-735.9957287525383" y="846.1442712474617" as="sourcePoint"/>
                        <mxPoint x="-41.27999999999997" y="527.86" as="targetPoint"/>
                        <Array as="points"/>
                    </mxGeometry>
                </mxCell>
                <mxCell id="74" value="&lt;font color=&quot;#00ff00&quot;&gt;=&lt;br&gt;&lt;/font&gt;&lt;span style=&quot;color: rgb(204, 0, 0);&quot;&gt;A.S. 7&lt;br&gt;&lt;/span&gt;&lt;font color=&quot;#00ff00&quot;&gt;&lt;br&gt;&lt;/font&gt;" style="text;html=1;strokeColor=none;fillColor=none;align=center;verticalAlign=middle;whiteSpace=wrap;rounded=0;fontColor=#FFFFFF;rotation=-25;" parent="1" vertex="1">
                    <mxGeometry x="-352.75" y="681.24" width="51.33" height="30" as="geometry"/>
                </mxCell>
                <mxCell id="75" style="edgeStyle=none;html=1;entryX=0.5;entryY=1;entryDx=0;entryDy=0;fontColor=#00FF00;startArrow=none;exitX=1;exitY=0.5;exitDx=0;exitDy=0;" parent="1" source="77" target="24" edge="1">
                    <mxGeometry relative="1" as="geometry">
                        <mxPoint x="-280" y="779.0600000000001" as="sourcePoint"/>
                        <mxPoint x="-13.435728752538353" y="518.1242712474613" as="targetPoint"/>
                        <Array as="points">
                            <mxPoint x="-101.72000000000003" y="659.8399999999999"/>
                        </Array>
                    </mxGeometry>
                </mxCell>
                <mxCell id="76" value="" style="edgeStyle=none;html=1;exitX=1;exitY=0.5;exitDx=0;exitDy=0;entryX=0;entryY=0.5;entryDx=0;entryDy=0;fontColor=#00FF00;endArrow=none;" parent="1" source="67" target="77" edge="1">
                    <mxGeometry relative="1" as="geometry">
                        <mxPoint x="-712.9999999999998" y="939.0600000000003" as="sourcePoint"/>
                        <mxPoint x="-40" y="639.06" as="targetPoint"/>
                        <Array as="points"/>
                    </mxGeometry>
                </mxCell>
                <mxCell id="77" value="&lt;font color=&quot;#00ff00&quot;&gt;&amp;gt;&amp;nbsp; =&amp;nbsp;&lt;br&gt;&lt;/font&gt;&lt;span style=&quot;color: rgb(204, 0, 0);&quot;&gt;A.S. 10&lt;br&gt;&lt;br&gt;&lt;/span&gt;&lt;font color=&quot;#00ff00&quot;&gt;&lt;br&gt;&lt;/font&gt;" style="text;html=1;strokeColor=none;fillColor=none;align=center;verticalAlign=middle;whiteSpace=wrap;rounded=0;fontColor=#FFFFFF;rotation=-25;" parent="1" vertex="1">
                    <mxGeometry x="-324.54" y="803.81" width="53.83" height="30" as="geometry"/>
                </mxCell>
                <mxCell id="83" style="edgeStyle=none;html=1;exitX=1;exitY=0.5;exitDx=0;exitDy=0;entryX=0;entryY=0.5;entryDx=0;entryDy=0;fontColor=#FFFFFF;startArrow=none;" parent="1" source="84" target="79" edge="1">
                    <mxGeometry relative="1" as="geometry"/>
                </mxCell>
                <mxCell id="78" value="&lt;font color=&quot;#ffffff&quot;&gt;8&lt;/font&gt;" style="ellipse;whiteSpace=wrap;html=1;aspect=fixed;fontColor=#00FF00;" parent="1" vertex="1">
                    <mxGeometry x="-573" y="937" width="80" height="80" as="geometry"/>
                </mxCell>
                <mxCell id="90" style="edgeStyle=none;html=1;exitX=0;exitY=0.5;exitDx=0;exitDy=0;entryX=1;entryY=0;entryDx=0;entryDy=0;fontColor=#FFFFFF;startArrow=none;" parent="1" source="91" target="78" edge="1">
                    <mxGeometry relative="1" as="geometry">
                        <Array as="points">
                            <mxPoint x="-473" y="927"/>
                        </Array>
                    </mxGeometry>
                </mxCell>
                <mxCell id="93" style="edgeStyle=none;html=1;exitX=1;exitY=0.5;exitDx=0;exitDy=0;fontColor=#FFFFFF;startArrow=none;" parent="1" source="94" edge="1">
                    <mxGeometry relative="1" as="geometry">
                        <mxPoint x="-43" y="497" as="targetPoint"/>
                        <Array as="points">
                            <mxPoint x="-43" y="977"/>
                        </Array>
                    </mxGeometry>
                </mxCell>
                <mxCell id="79" value="&lt;font color=&quot;#ffffff&quot;&gt;9&lt;/font&gt;" style="ellipse;whiteSpace=wrap;html=1;aspect=fixed;fontColor=#00FF00;" parent="1" vertex="1">
                    <mxGeometry x="-323.8299999999999" y="937" width="80" height="80" as="geometry"/>
                </mxCell>
                <mxCell id="82" value="" style="edgeStyle=none;html=1;exitX=1;exitY=1;exitDx=0;exitDy=0;entryX=0;entryY=0.5;entryDx=0;entryDy=0;fontColor=#FFFFFF;endArrow=none;" parent="1" source="67" target="81" edge="1">
                    <mxGeometry relative="1" as="geometry">
                        <mxPoint x="-745.9957287525381" y="934.5042712474619" as="sourcePoint"/>
                        <mxPoint x="-573" y="977" as="targetPoint"/>
                        <Array as="points">
                            <mxPoint x="-743" y="977"/>
                        </Array>
                    </mxGeometry>
                </mxCell>
                <mxCell id="81" value="&lt;font color=&quot;#00ff00&quot;&gt;&amp;lt;&lt;br&gt;&lt;/font&gt;&lt;span style=&quot;color: rgb(204, 0, 0);&quot;&gt;A.S. 11&lt;/span&gt;&lt;font color=&quot;#00ff00&quot;&gt;&lt;br&gt;&lt;/font&gt;" style="text;html=1;strokeColor=none;fillColor=none;align=center;verticalAlign=middle;whiteSpace=wrap;rounded=0;fontColor=#FFFFFF;rotation=0;" parent="1" vertex="1">
                    <mxGeometry x="-680" y="962" width="50" height="30" as="geometry"/>
                </mxCell>
                <mxCell id="85" value="" style="edgeStyle=none;html=1;exitX=1;exitY=0.5;exitDx=0;exitDy=0;entryX=0;entryY=0.5;entryDx=0;entryDy=0;fontColor=#FFFFFF;endArrow=none;" parent="1" source="78" target="84" edge="1">
                    <mxGeometry relative="1" as="geometry">
                        <mxPoint x="-493" y="977" as="sourcePoint"/>
                        <mxPoint x="-323.8299999999999" y="977" as="targetPoint"/>
                    </mxGeometry>
                </mxCell>
                <mxCell id="84" value="&lt;font color=&quot;#00ff00&quot;&gt;&amp;gt;&lt;/font&gt;" style="text;html=1;strokeColor=none;fillColor=none;align=center;verticalAlign=middle;whiteSpace=wrap;rounded=0;fontColor=#FFFFFF;rotation=0;" parent="1" vertex="1">
                    <mxGeometry x="-422" y="962" width="20" height="30" as="geometry"/>
                </mxCell>
                <mxCell id="88" value="" style="endArrow=classic;html=1;exitX=0;exitY=0;exitDx=0;exitDy=0;entryX=1;entryY=0;entryDx=0;entryDy=0;" parent="1" edge="1">
                    <mxGeometry width="50" height="50" relative="1" as="geometry">
                        <mxPoint x="-561.2842712474621" y="946.2157287525379" as="sourcePoint"/>
                        <mxPoint x="-504.71572875253787" y="946.2157287525379" as="targetPoint"/>
                        <Array as="points">
                            <mxPoint x="-561" y="914.5"/>
                            <mxPoint x="-533" y="904.5"/>
                            <mxPoint x="-505" y="914.5"/>
                        </Array>
                    </mxGeometry>
                </mxCell>
                <mxCell id="89" value="&lt;font color=&quot;#00ff00&quot;&gt;C - &amp;gt;&lt;br&gt;&lt;/font&gt;&lt;span style=&quot;color: rgb(204, 0, 0);&quot;&gt;A.S. 12&lt;br&gt;&lt;/span&gt;&lt;font color=&quot;#00ff00&quot;&gt;&lt;br&gt;&lt;/font&gt;" style="text;html=1;strokeColor=none;fillColor=none;align=center;verticalAlign=middle;whiteSpace=wrap;rounded=0;" parent="1" vertex="1">
                    <mxGeometry x="-554.5" y="880" width="43" height="20" as="geometry"/>
                </mxCell>
                <mxCell id="92" value="" style="edgeStyle=none;html=1;exitX=0.5;exitY=0;exitDx=0;exitDy=0;entryX=1;entryY=0.5;entryDx=0;entryDy=0;fontColor=#FFFFFF;endArrow=none;" parent="1" source="79" target="91" edge="1">
                    <mxGeometry relative="1" as="geometry">
                        <mxPoint x="-283.8299999999999" y="937" as="sourcePoint"/>
                        <mxPoint x="-504.7157287525381" y="948.7157287525379" as="targetPoint"/>
                        <Array as="points">
                            <mxPoint x="-333" y="927"/>
                        </Array>
                    </mxGeometry>
                </mxCell>
                <mxCell id="91" value="&lt;font color=&quot;#00ff00&quot;&gt;C - &amp;gt;&lt;br&gt;&lt;/font&gt;&lt;span style=&quot;color: rgb(204, 0, 0);&quot;&gt;A.S. 13&lt;/span&gt;&lt;font color=&quot;#00ff00&quot;&gt;&lt;br&gt;&lt;/font&gt;" style="text;html=1;strokeColor=none;fillColor=none;align=center;verticalAlign=middle;whiteSpace=wrap;rounded=0;" parent="1" vertex="1">
                    <mxGeometry x="-430" y="917" width="50" height="20" as="geometry"/>
                </mxCell>
                <mxCell id="95" value="" style="edgeStyle=none;html=1;exitX=1;exitY=0.5;exitDx=0;exitDy=0;fontColor=#FFFFFF;endArrow=none;" parent="1" source="79" target="94" edge="1">
                    <mxGeometry relative="1" as="geometry">
                        <mxPoint x="-243.82999999999993" y="977" as="sourcePoint"/>
                        <mxPoint x="-43" y="497" as="targetPoint"/>
                        <Array as="points"/>
                    </mxGeometry>
                </mxCell>
                <mxCell id="94" value="&lt;font color=&quot;#00ff00&quot;&gt;&amp;gt;&lt;/font&gt;" style="text;html=1;strokeColor=none;fillColor=none;align=center;verticalAlign=middle;whiteSpace=wrap;rounded=0;fontColor=#FFFFFF;rotation=0;" parent="1" vertex="1">
                    <mxGeometry x="-163" y="962" width="20" height="30" as="geometry"/>
                </mxCell>
                <mxCell id="100" value="" style="edgeStyle=none;html=1;exitX=0.5;exitY=0;exitDx=0;exitDy=0;stroke=#FF0000;;strokeColor=#CC0000;entryX=0;entryY=1;entryDx=0;entryDy=0;endArrow=none;" parent="1" source="50" target="99" edge="1">
                    <mxGeometry relative="1" as="geometry">
                        <mxPoint x="-776" y="647" as="sourcePoint"/>
                        <mxPoint x="-1125.24" y="481.6400000000001" as="targetPoint"/>
                        <Array as="points"/>
                    </mxGeometry>
                </mxCell>
                <mxCell id="99" value="&lt;div style=&quot;text-align: center;&quot;&gt;&lt;span style=&quot;background-color: initial;&quot;&gt;&lt;font color=&quot;#00ff00&quot;&gt;C - =&lt;/font&gt;&lt;/span&gt;&lt;/div&gt;&lt;div style=&quot;text-align: center;&quot;&gt;&lt;span style=&quot;color: rgb(204, 0, 0);&quot;&gt;A.S. 16&lt;/span&gt;&lt;span style=&quot;background-color: initial;&quot;&gt;&lt;font color=&quot;#00ff00&quot;&gt;&lt;br&gt;&lt;/font&gt;&lt;/span&gt;&lt;/div&gt;&lt;div style=&quot;text-align: center;&quot;&gt;&lt;span style=&quot;color: rgb(204, 0, 0);&quot;&gt;&lt;br&gt;&lt;/span&gt;&lt;/div&gt;&lt;div style=&quot;text-align: center;&quot;&gt;&lt;span style=&quot;color: rgb(204, 0, 0);&quot;&gt;&lt;br&gt;&lt;/span&gt;&lt;/div&gt;" style="text;whiteSpace=wrap;html=1;rotation=30;" parent="1" vertex="1">
                    <mxGeometry x="-697" y="626.89" width="50.84" height="30" as="geometry"/>
                </mxCell>
                <mxCell id="101" style="edgeStyle=none;html=1;exitX=1;exitY=0.25;exitDx=0;exitDy=0;stroke=#FF0000;;strokeColor=#CC0000;startArrow=none;entryX=0;entryY=0;entryDx=0;entryDy=0;" parent="1" source="103" target="35" edge="1">
                    <mxGeometry relative="1" as="geometry">
                        <mxPoint x="-1080" y="480" as="targetPoint"/>
                        <Array as="points"/>
                    </mxGeometry>
                </mxCell>
                <mxCell id="102" value="" style="edgeStyle=none;html=1;exitX=0.5;exitY=0;exitDx=0;exitDy=0;stroke=#FF0000;;strokeColor=#CC0000;entryX=0;entryY=0.25;entryDx=0;entryDy=0;endArrow=none;" parent="1" source="34" target="103" edge="1">
                    <mxGeometry relative="1" as="geometry">
                        <mxPoint x="-771.52" y="537" as="sourcePoint"/>
                        <mxPoint x="-1120.76" y="371.6400000000001" as="targetPoint"/>
                        <Array as="points">
                            <mxPoint x="-776" y="520"/>
                        </Array>
                    </mxGeometry>
                </mxCell>
                <mxCell id="103" value="&lt;div style=&quot;text-align: center;&quot;&gt;&lt;span style=&quot;background-color: initial;&quot;&gt;&lt;font color=&quot;#00ff00&quot;&gt;C - #&lt;/font&gt;&lt;/span&gt;&lt;/div&gt;&lt;div style=&quot;text-align: center;&quot;&gt;&lt;span style=&quot;color: rgb(204, 0, 0);&quot;&gt;A.S. 6&lt;/span&gt;&lt;span style=&quot;background-color: initial;&quot;&gt;&lt;font color=&quot;#00ff00&quot;&gt;&lt;br&gt;&lt;/font&gt;&lt;/span&gt;&lt;/div&gt;" style="text;whiteSpace=wrap;html=1;rotation=0;" parent="1" vertex="1">
                    <mxGeometry x="-734.2799999999999" y="529.5" width="50.84" height="30" as="geometry"/>
                </mxCell>
                <mxCell id="105" value="&lt;span style=&quot;color: rgb(0, 255, 0); font-family: Helvetica; font-size: 12px; font-style: normal; font-variant-ligatures: normal; font-variant-caps: normal; font-weight: 400; letter-spacing: normal; orphans: 2; text-align: center; text-indent: 0px; text-transform: none; widows: 2; word-spacing: 0px; -webkit-text-stroke-width: 0px; background-color: rgb(24, 20, 29); text-decoration-thickness: initial; text-decoration-style: initial; text-decoration-color: initial; float: none; display: inline !important;&quot;&gt;C - nl&lt;/span&gt;" style="text;whiteSpace=wrap;html=1;" parent="1" vertex="1">
                    <mxGeometry x="-470" y="559.5" width="40" height="40" as="geometry"/>
                </mxCell>
                <mxCell id="106" style="edgeStyle=none;html=1;exitX=1;exitY=0.5;exitDx=0;exitDy=0;entryX=1;entryY=0.75;entryDx=0;entryDy=0;" parent="1" source="56" target="56" edge="1">
                    <mxGeometry relative="1" as="geometry"/>
                </mxCell>
                <mxCell id="107" style="edgeStyle=none;html=1;exitX=1;exitY=0;exitDx=0;exitDy=0;entryX=1;entryY=0.25;entryDx=0;entryDy=0;" parent="1" source="69" target="69" edge="1">
                    <mxGeometry relative="1" as="geometry"/>
                </mxCell>
                <mxCell id="108" style="edgeStyle=none;html=1;exitX=1;exitY=0.75;exitDx=0;exitDy=0;entryX=1;entryY=0.5;entryDx=0;entryDy=0;" parent="1" source="15" target="15" edge="1">
                    <mxGeometry relative="1" as="geometry"/>
                </mxCell>
                <mxCell id="110" value="&lt;font color=&quot;#00ff00&quot;&gt;eof&lt;br&gt;&lt;/font&gt;&lt;span style=&quot;color: rgb(204, 0, 0);&quot;&gt;A.S. 15&lt;/span&gt;&lt;font color=&quot;#00ff00&quot;&gt;&lt;br&gt;&lt;/font&gt;" style="text;html=1;strokeColor=none;fillColor=none;align=center;verticalAlign=middle;whiteSpace=wrap;rounded=0;fontColor=#FFFFFF;" parent="1" vertex="1">
                    <mxGeometry x="-673" y="404" width="100" height="25" as="geometry"/>
                </mxCell>
            </root>
        </mxGraphModel>
    </diagram>
</mxfile>